<?xml version="1.0" encoding="UTF-8" standalone="no"?>
<svg
   xmlns:dc="http://purl.org/dc/elements/1.1/"
   xmlns:cc="http://creativecommons.org/ns#"
   xmlns:rdf="http://www.w3.org/1999/02/22-rdf-syntax-ns#"
   xmlns:svg="http://www.w3.org/2000/svg"
   xmlns="http://www.w3.org/2000/svg"
   style="fill:none"
   id="svg25"
   version="1.1"
   viewBox="0 0 42.972954 43"
   height="43"
   width="42.972954">
  <metadata
     id="metadata29">
    <rdf:RDF>
      <cc:Work
         rdf:about="">
        <dc:format>image/svg+xml</dc:format>
        <dc:type
           rdf:resource="http://purl.org/dc/dcmitype/StillImage" />
        <dc:title></dc:title>
      </cc:Work>
    </rdf:RDF>
  </metadata>
  <g
     id="g18"
     clip-path="url(#clip0_622_25361)">
    <path
       style="clip-rule:evenodd;fill:#3fb9d6;fill-rule:evenodd"
       id="path2"
       d="m 41.6101,18.2996 0.5126,-0.1138 c 0.2652,-0.0651 0.4957,-0.2272 0.6454,-0.4538 0.1497,-0.2265 0.2076,-0.5009 0.1619,-0.7679 0,0 0,0 -0.1224,-0.5009 -0.398,-1.6313 -0.9914,-3.2096 -1.7676,-4.701 -0.2563,-0.4933 -0.3099,-0.5881 -0.3099,-0.5881 -0.1633,-0.2452 -0.3948,-0.438 -0.6664,-0.5552 -0.2717,-0.1172 -0.5718,-0.1537 -0.8639,-0.105 l -0.6045,0.1138 c -5.6475,1.0659 -11.3836,1.602 -17.1324,1.6012 v 8.298 c 6.7733,0.0024 13.5257,-0.7446 20.1319,-2.2273" />
    <path
       style="clip-rule:evenodd;fill:#a9e42f;fill-rule:evenodd"
       id="path4"
       d="M 4.30492,10.6239 3.74252,10.51 C 3.48194,10.4515 3.21004,10.4667 2.95775,10.5539 2.70546,10.6411 2.48292,10.7968 2.31546,11.0033 l -0.19895,0.3794 c -0.83532,1.53 -1.477793,3.156 -1.912947,4.8414 -0.1453838,0.5654 -0.1798169,0.7589 -0.1798169,0.7589 -0.0467255,0.2667 0.0101871,0.541 0.1592719,0.7677 0.149086,0.2267 0.379265,0.3889 0.644166,0.454 l 0.501196,0.1101 c 6.61293,1.4795 13.37192,2.2215 20.15102,2.212 V 12.225 C 15.7164,12.2298 9.96599,11.6937 4.30492,10.6239 Z" />
    <path
       style="clip-rule:evenodd;fill:#a9e42f;fill-rule:evenodd"
       id="path6"
       d="M 8.20183,4.38239 C 7.67385,4.76181 7.43665,4.9667 7.43665,4.9667 7.34256,5.04259 7.26802,5.13958 7.21915,5.24966 7.17029,5.35974 7.14851,5.47976 7.15561,5.59983 c 0.0071,0.12006 0.04288,0.23674 0.10438,0.3404 0.0615,0.10366 0.14697,0.19134 0.24935,0.2558 0,0 0.14538,0.09865 0.65805,0.40598 C 12.175,9.01758 16.7765,10.291 21.4662,10.2824 V 5.56979e-5 C 16.678,-0.0106699 12.0169,1.52794 8.19035,4.38239" />
    <path
       style="clip-rule:evenodd;fill:#3fb9d6;fill-rule:evenodd"
       id="path8"
       d="M 34.6702,6.66651 C 35.2173,6.3402 35.4354,6.19223 35.4354,6.19223 35.5412,6.13132 35.6301,6.0453 35.6941,5.94188 35.7581,5.83847 35.7951,5.72091 35.802,5.59977 35.8088,5.47863 35.7852,5.35771 35.7332,5.24787 35.6812,5.13803 35.6026,5.04271 35.5043,4.97049 c 0,0 -0.3444,-0.29216 -0.9374,-0.7247 C 30.7744,1.4784 26.187,-0.00973526 21.4785,4.79296e-5 V 10.2824 c 4.647,0.0067 9.2078,-1.24346 13.1917,-3.61589 z" />
    <path
       style="clip-rule:evenodd;fill:#7518bd;fill-rule:evenodd"
       id="path10"
       d="M 42.1231,24.7953 41.5492,24.6625 C 34.9621,23.191 28.2307,22.4492 21.4785,22.4504 v 8.3056 c 5.6993,-0.0013 11.3862,0.5246 16.987,1.5708 l 0.7652,0.1442 c 0.2921,0.0487 0.5922,0.0122 0.8639,-0.105 0.2716,-0.1172 0.5032,-0.3101 0.6664,-0.5552 l 0.2908,-0.554 c 0.7376,-1.4125 1.3125,-2.9029 1.714,-4.443 0.1492,-0.5843 0.1913,-0.8006 0.1913,-0.8006 0.0466,-0.2662 -0.0104,-0.54 -0.1596,-0.7661 -0.1491,-0.226 -0.3792,-0.3875 -0.6438,-0.4518" />
    <path
       style="clip-rule:evenodd;fill:#ea5120;fill-rule:evenodd"
       id="path12"
       d="m 1.39636,24.6625 -0.566228,0.129 C 0.565628,24.8466 0.332354,24.9999 0.178028,25.2199 0.0237014,25.44 -0.040015,25.7102 -8.78721e-5,25.9753 L 0.110863,26.4382 c 0.405669,1.6557 1.010677,3.257 1.801997,4.7693 0.25634,0.5009 0.31755,0.6033 0.31755,0.6033 0.16328,0.2452 0.3948,0.438 0.66645,0.5552 0.27165,0.1172 0.57176,0.1537 0.86391,0.105 L 4.3423,32.3572 C 9.99743,31.2909 15.7412,30.7548 21.4976,30.756 V 22.4505 C 14.7352,22.4457 7.99324,23.1876 1.39636,24.6625 Z" />
    <path
       style="clip-rule:evenodd;fill:#7518bd;fill-rule:evenodd"
       id="path14"
       d="m 21.4785,43.0001 c 4.7878,0.0082 9.4481,-1.5302 13.2759,-4.3824 0.5241,-0.3794 0.7652,-0.5881 0.7652,-0.5881 0.0975,-0.0738 0.1751,-0.1705 0.2258,-0.2813 0.0506,-0.1109 0.0728,-0.2325 0.0644,-0.3539 -0.0083,-0.1214 -0.0469,-0.2389 -0.1122,-0.3419 -0.0654,-0.1031 -0.1554,-0.1884 -0.2622,-0.2484 0,0 -0.1416,-0.0949 -0.6504,-0.406 -4.0101,-2.4168 -8.614,-3.6915 -13.3065,-3.6842 z" />
    <path
       style="clip-rule:evenodd;fill:#ea5120;fill-rule:evenodd"
       id="path16"
       d="m 7.52199,36.8041 c -0.10605,0.0611 -0.19519,0.1472 -0.25947,0.2508 -0.06428,0.1035 -0.1017,0.2212 -0.1089,0.3426 -0.0072,0.1214 0.01604,0.2427 0.06764,0.353 0.05159,0.1103 0.12994,0.2062 0.22804,0.2792 0,0 0.18364,0.1593 0.68483,0.535 3.83917,2.8865 8.52697,4.4446 13.34477,4.4354 V 32.6988 C 16.8513,32.6896 12.3085,33.929 8.33691,36.2843 7.77067,36.6182 7.52199,36.7852 7.52199,36.7852" />
  </g>
  <defs
     id="defs23">
    <clipPath
       id="clip0_622_25361">
      <rect
         style="fill:#ffffff"
         y="0"
         x="0"
         id="rect20"
         height="43"
         width="154" />
    </clipPath>
  </defs>
</svg>
